<svg width="97" height="80" viewBox="0 0 97 80" fill="none" xmlns="http://www.w3.org/2000/svg">
<mask id="path-1-inside-1_645_557" fill="white">
<path d="M56.2154 11.9625C55.0273 10.3891 53.3949 9.51637 51.5357 8.85071C51.5265 9.26258 51.7659 9.30243 51.9202 9.41262C52.7476 10.0033 53.5932 10.5684 54.2589 11.3569C55.3366 12.6332 55.3411 13.947 54.2382 15.1977C53.5995 15.922 52.8414 16.5033 51.9809 16.94C50.2046 17.8413 48.431 18.7489 46.639 19.618C44.1795 20.8109 41.8024 22.1069 39.814 24.0405C37.2459 26.5378 36.6421 29.8165 38.2453 33.0079C39.1932 34.8949 40.572 36.4377 42.1635 37.7872C44.8029 40.0253 47.6436 41.9898 50.5333 43.8914C55.9679 47.4677 61.4809 50.9244 66.8575 54.5891C67.0245 54.7029 67.2997 54.75 67.2604 55.0583C67.0426 55.2432 66.7735 55.2436 66.5149 55.2832C64.304 55.621 62.1096 56.0226 59.9823 56.746C54.8136 58.5039 50.7649 61.5703 48.3679 66.5922C48.3175 66.6979 48.2764 66.827 48.0804 66.8162C48.0458 66.7758 47.9764 66.7256 47.9493 66.6584C46.5569 63.2097 44.1927 60.462 41.6115 57.8717C39.9048 56.159 38.0844 54.568 36.3125 52.9249C34.2286 50.9924 32.1414 49.0636 30.1382 47.0448C27.8757 44.7648 25.8805 42.289 24.496 39.3774C23.4106 37.0948 22.9761 34.6712 23.2564 32.1425C23.6409 28.6738 25.4471 25.9986 27.9779 23.733C30.3493 21.6102 33.1582 20.2352 36.0821 19.09C38.9183 17.9792 41.7932 16.9674 44.6479 15.9034C45.886 15.4418 47.1257 14.9814 48.183 14.1489C49.4102 13.1825 49.6456 11.9675 48.8148 10.6635C48.4642 10.1133 48.0136 9.64412 47.5075 9.22647C46.1522 8.108 44.6763 7.16912 43.1242 6.35955C40.1897 4.82894 37.0655 3.90177 33.7619 3.66081C31.0504 3.46304 28.3591 3.68616 25.7012 4.27161C23.9909 4.64834 22.3086 5.1167 20.7031 5.82909C20.4286 5.95086 20.1474 6.05012 20.0959 6.43431C19.9098 7.8225 19.6847 9.20546 19.4992 10.5937C19.1333 13.3313 18.789 16.0717 18.4267 18.8097C18.011 21.9507 17.584 25.0901 17.1649 28.2306C16.8076 30.9082 16.459 33.5869 16.0984 36.264C15.6865 39.3224 15.2565 42.3785 14.8507 45.4377C14.3328 49.3426 13.823 53.2486 13.3283 57.1564C13.1995 58.1741 12.989 59.1879 13.0061 60.2458C13.4656 60.2896 13.806 60.0889 14.1601 59.9654C17.3443 58.8553 20.6312 58.2266 23.9867 58.0395C27.7523 57.8296 31.4444 58.3448 35.0287 59.5361C38.7778 60.7822 42.045 62.7375 44.3782 66.0272C45.9466 68.2386 46.8746 70.6633 46.8219 73.4144C46.8075 74.1668 46.8404 74.92 46.8259 75.6724C46.8186 76.0512 46.9344 76.2449 47.3433 76.2302C47.8106 76.2133 48.2793 76.2189 48.7468 76.2339C49.1609 76.2473 49.3322 76.0732 49.3234 75.6528C49.3062 74.8395 49.3251 74.0254 49.3206 73.2117C49.3056 70.5086 50.2151 68.1058 51.7646 65.9405C53.9996 62.8171 57.0934 60.8385 60.6646 59.6114C64.6476 58.2427 68.7583 57.8152 72.9697 58.1073C76.2842 58.3372 79.464 59.0891 82.5902 60.1517C82.8084 60.2259 83.0309 60.3634 83.3013 60.2561C83.2949 59.5383 83.1356 58.8484 83.0421 58.1492C82.9749 57.6459 82.7261 57.4023 82.2854 57.2405C81.1406 56.82 79.9969 56.3953 78.8645 55.9429C76.0753 54.8285 73.5586 53.2004 70.9825 51.6918C65.5269 48.4968 60.0289 45.3729 54.6435 42.0595C51.5792 40.1742 48.4754 38.3415 45.6939 36.0354C44.3283 34.9032 43.0364 33.7026 42.168 32.1162C40.979 29.9442 40.9045 27.7765 42.1859 25.6242C42.9172 24.3958 43.9921 23.4791 45.1261 22.6486C46.7877 21.4319 48.6511 20.5492 50.4334 19.5312C52.1577 18.5463 53.9852 17.7169 55.4359 16.2972C56.7395 15.0214 57.0166 13.6845 56.2154 11.9625ZM79.3357 30.0684C79.3055 29.9087 79.2675 29.75 79.2463 29.5891C78.7869 26.1082 78.3766 22.62 77.8593 19.1477C77.2403 14.9932 76.8536 10.808 76.1634 6.66372C76.0967 6.2628 75.9082 5.99856 75.529 5.85151C72.6938 4.75197 69.7746 3.94793 66.7468 3.67298C62.7609 3.31103 58.8835 3.88376 55.1471 5.3458C54.245 5.6988 53.3295 6.02248 52.5095 6.55801C52.6252 6.89441 52.9163 6.91994 53.1489 7.01554C54.4079 7.53279 55.6812 8.01657 56.9292 8.55871C58.7051 9.33017 60.4464 10.177 61.7617 11.662C63.0756 13.1453 63.4281 14.824 62.6903 16.6967C62.156 18.053 61.1161 18.9921 60.0552 19.9168C58.4049 21.355 56.5186 22.5058 55.0737 24.2001C53.5551 25.9808 53.3518 28.2786 54.6687 30.2084C55.2628 31.0789 56.0263 31.7717 56.8806 32.3692C59.1212 33.9362 61.545 35.1589 64.0383 36.2737C69.0858 38.5305 74.2184 40.5701 79.4119 42.4598C79.8794 42.6299 80.3256 42.904 80.8576 42.915C80.9636 42.7317 80.9347 42.5443 80.9125 42.3698C80.6971 40.6798 80.471 38.9912 80.2532 37.3015C79.9468 34.9252 79.6449 32.5483 79.3357 30.0684Z"/>
</mask>
<path d="M56.2154 11.9625C55.0273 10.3891 53.3949 9.51637 51.5357 8.85071C51.5265 9.26258 51.7659 9.30243 51.9202 9.41262C52.7476 10.0033 53.5932 10.5684 54.2589 11.3569C55.3366 12.6332 55.3411 13.947 54.2382 15.1977C53.5995 15.922 52.8414 16.5033 51.9809 16.94C50.2046 17.8413 48.431 18.7489 46.639 19.618C44.1795 20.8109 41.8024 22.1069 39.814 24.0405C37.2459 26.5378 36.6421 29.8165 38.2453 33.0079C39.1932 34.8949 40.572 36.4377 42.1635 37.7872C44.8029 40.0253 47.6436 41.9898 50.5333 43.8914C55.9679 47.4677 61.4809 50.9244 66.8575 54.5891C67.0245 54.7029 67.2997 54.75 67.2604 55.0583C67.0426 55.2432 66.7735 55.2436 66.5149 55.2832C64.304 55.621 62.1096 56.0226 59.9823 56.746C54.8136 58.5039 50.7649 61.5703 48.3679 66.5922C48.3175 66.6979 48.2764 66.827 48.0804 66.8162C48.0458 66.7758 47.9764 66.7256 47.9493 66.6584C46.5569 63.2097 44.1927 60.462 41.6115 57.8717C39.9048 56.159 38.0844 54.568 36.3125 52.9249C34.2286 50.9924 32.1414 49.0636 30.1382 47.0448C27.8757 44.7648 25.8805 42.289 24.496 39.3774C23.4106 37.0948 22.9761 34.6712 23.2564 32.1425C23.6409 28.6738 25.4471 25.9986 27.9779 23.733C30.3493 21.6102 33.1582 20.2352 36.0821 19.09C38.9183 17.9792 41.7932 16.9674 44.6479 15.9034C45.886 15.4418 47.1257 14.9814 48.183 14.1489C49.4102 13.1825 49.6456 11.9675 48.8148 10.6635C48.4642 10.1133 48.0136 9.64412 47.5075 9.22647C46.1522 8.108 44.6763 7.16912 43.1242 6.35955C40.1897 4.82894 37.0655 3.90177 33.7619 3.66081C31.0504 3.46304 28.3591 3.68616 25.7012 4.27161C23.9909 4.64834 22.3086 5.1167 20.7031 5.82909C20.4286 5.95086 20.1474 6.05012 20.0959 6.43431C19.9098 7.8225 19.6847 9.20546 19.4992 10.5937C19.1333 13.3313 18.789 16.0717 18.4267 18.8097C18.011 21.9507 17.584 25.0901 17.1649 28.2306C16.8076 30.9082 16.459 33.5869 16.0984 36.264C15.6865 39.3224 15.2565 42.3785 14.8507 45.4377C14.3328 49.3426 13.823 53.2486 13.3283 57.1564C13.1995 58.1741 12.989 59.1879 13.0061 60.2458C13.4656 60.2896 13.806 60.0889 14.1601 59.9654C17.3443 58.8553 20.6312 58.2266 23.9867 58.0395C27.7523 57.8296 31.4444 58.3448 35.0287 59.5361C38.7778 60.7822 42.045 62.7375 44.3782 66.0272C45.9466 68.2386 46.8746 70.6633 46.8219 73.4144C46.8075 74.1668 46.8404 74.92 46.8259 75.6724C46.8186 76.0512 46.9344 76.2449 47.3433 76.2302C47.8106 76.2133 48.2793 76.2189 48.7468 76.2339C49.1609 76.2473 49.3322 76.0732 49.3234 75.6528C49.3062 74.8395 49.3251 74.0254 49.3206 73.2117C49.3056 70.5086 50.2151 68.1058 51.7646 65.9405C53.9996 62.8171 57.0934 60.8385 60.6646 59.6114C64.6476 58.2427 68.7583 57.8152 72.9697 58.1073C76.2842 58.3372 79.464 59.0891 82.5902 60.1517C82.8084 60.2259 83.0309 60.3634 83.3013 60.2561C83.2949 59.5383 83.1356 58.8484 83.0421 58.1492C82.9749 57.6459 82.7261 57.4023 82.2854 57.2405C81.1406 56.82 79.9969 56.3953 78.8645 55.9429C76.0753 54.8285 73.5586 53.2004 70.9825 51.6918C65.5269 48.4968 60.0289 45.3729 54.6435 42.0595C51.5792 40.1742 48.4754 38.3415 45.6939 36.0354C44.3283 34.9032 43.0364 33.7026 42.168 32.1162C40.979 29.9442 40.9045 27.7765 42.1859 25.6242C42.9172 24.3958 43.9921 23.4791 45.1261 22.6486C46.7877 21.4319 48.6511 20.5492 50.4334 19.5312C52.1577 18.5463 53.9852 17.7169 55.4359 16.2972C56.7395 15.0214 57.0166 13.6845 56.2154 11.9625ZM79.3357 30.0684C79.3055 29.9087 79.2675 29.75 79.2463 29.5891C78.7869 26.1082 78.3766 22.62 77.8593 19.1477C77.2403 14.9932 76.8536 10.808 76.1634 6.66372C76.0967 6.2628 75.9082 5.99856 75.529 5.85151C72.6938 4.75197 69.7746 3.94793 66.7468 3.67298C62.7609 3.31103 58.8835 3.88376 55.1471 5.3458C54.245 5.6988 53.3295 6.02248 52.5095 6.55801C52.6252 6.89441 52.9163 6.91994 53.1489 7.01554C54.4079 7.53279 55.6812 8.01657 56.9292 8.55871C58.7051 9.33017 60.4464 10.177 61.7617 11.662C63.0756 13.1453 63.4281 14.824 62.6903 16.6967C62.156 18.053 61.1161 18.9921 60.0552 19.9168C58.4049 21.355 56.5186 22.5058 55.0737 24.2001C53.5551 25.9808 53.3518 28.2786 54.6687 30.2084C55.2628 31.0789 56.0263 31.7717 56.8806 32.3692C59.1212 33.9362 61.545 35.1589 64.0383 36.2737C69.0858 38.5305 74.2184 40.5701 79.4119 42.4598C79.8794 42.6299 80.3256 42.904 80.8576 42.915C80.9636 42.7317 80.9347 42.5443 80.9125 42.3698C80.6971 40.6798 80.471 38.9912 80.2532 37.3015C79.9468 34.9252 79.6449 32.5483 79.3357 30.0684Z" fill="white"/>
<path d="M24.8182 74.3337L24.8147 99.3337L24.8203 99.3337L24.8182 74.3337ZM2.11508 74.3563L1.94183 49.3569L1.94179 49.3569L2.11508 74.3563ZM0.0281663 71.9098L-24.6801 68.1017L-24.6801 68.1017L0.0281663 71.9098ZM2.06332 58.6135L26.7769 62.3873L26.7769 62.3873L2.06332 58.6135ZM4.40413 43.2683L29.1181 47.0393L29.1181 47.0393L4.40413 43.2683ZM6.32333 30.6907L-18.3942 26.9435L-18.3942 26.9435L6.32333 30.6907ZM8.19271 18.289L32.911 22.0314L32.911 22.0314L8.19271 18.289ZM8.52636 16.3717L-15.909 11.0882L-15.909 11.0883L8.52636 16.3717ZM11.1242 14.0813L8.98648 -10.8271L8.98642 -10.8271L11.1242 14.0813ZM12.6235 14.0968L37.384 17.5493L40.4501 -4.43974L18.9773 -10.0823L12.6235 14.0968ZM4.28268 70.9579L-20.4692 67.4442L-26.6088 110.694L13.7913 94.079L4.28268 70.9579ZM7.04773 69.5096L-3.95456 47.0608L-3.95457 47.0608L7.04773 69.5096ZM43.4277 74.1729L21.9431 86.9561L68.406 73.1303L43.4277 74.1729ZM39.6116 66.4047L56.045 47.5647L56.045 47.5647L39.6116 66.4047ZM26.8688 61.7666L27.9677 36.7908L27.9677 36.7908L26.8688 61.7666ZM11.8783 64.7828L21.767 87.7439L21.7671 87.7438L11.8783 64.7828ZM10.9702 65.1384L18.6771 88.9208L18.6772 88.9208L10.9702 65.1384ZM8.553 63.2982L33.4983 64.9515L33.4983 64.9514L8.553 63.2982ZM8.9384 60.2806L-15.8333 56.9099L-15.8333 56.9099L8.9384 60.2806ZM10.0042 52.5015L-14.7552 49.0409L-14.7552 49.0409L10.0042 52.5015ZM11.2096 43.9984L35.9747 47.4173L35.9747 47.4173L11.2096 43.9984ZM12.6904 33.078L-12.0831 29.7207L-12.0831 29.7207L12.6904 33.078ZM14.6656 18.5439L-10.0945 15.0888L-10.0945 15.0888L14.6656 18.5439ZM16.4789 5.15299L41.1745 9.04242L41.1745 9.04241L16.4789 5.15299ZM18.4111 2.77029L9.13186 -20.4439L9.13184 -20.4438L18.4111 2.77029ZM33.9527 0.0598654L32.4272 25.0133L32.4272 25.0133L33.9527 0.0598654ZM43.4255 2.42405L53.2934 -20.546L53.2934 -20.546L43.4255 2.42405ZM47.8421 5.28884L29.9351 22.7342L29.9352 22.7343L47.8421 5.28884ZM48.4505 5.31514L30.5583 -12.1454L30.5582 -12.1453L48.4505 5.31514ZM58.6007 0.544654L53.4869 -23.9267L53.4869 -23.9267L58.6007 0.544654ZM67.2148 0.155877L64.9489 25.053L64.9489 25.053L67.2148 0.155877ZM78.193 3.00307L87.7432 -20.1009L87.7432 -20.1009L78.193 3.00307ZM79.7789 5.28654L104.56 1.98334L104.56 1.98329L79.7789 5.28654ZM81.3843 17.2992L56.6122 20.6675L56.6122 20.6676L81.3843 17.2992ZM83.1637 30.2038L107.933 26.8181L107.933 26.818L83.1637 30.2038ZM84.8059 42.3312L60.0417 45.757L60.0417 45.7571L84.8059 42.3312ZM86.3204 53.004L111.083 49.5686L111.083 49.5686L86.3204 53.004ZM87.6922 63.1991L112.48 59.9508L112.48 59.9505L87.6922 63.1991ZM85.262 65.1889L76.9416 88.7637L76.9418 88.7638L85.262 65.1889ZM80.7542 63.4977L72.2562 87.009L72.2563 87.0091L80.7542 63.4977ZM69.3799 61.7712L70.5466 86.744L70.5467 86.744L69.3799 61.7712ZM58.3084 64.932L71.8136 85.9703L71.8136 85.9703L58.3084 64.932ZM52.7211 73.4601L27.9128 70.3705L27.9126 70.3718L52.7211 73.4601ZM52.8553 73.9166L35.6413 92.0461L57.8944 113.175L74.0899 87.111L52.8553 73.9166ZM53.8008 72.3955L74.9749 85.6868L74.975 85.6867L53.8008 72.3955ZM62.5958 65.9372L54.8878 42.1551L54.8877 42.1552L62.5958 65.9372ZM72.3408 64.737L71.1932 89.7106L71.1932 89.7106L72.3408 64.737ZM80.5842 66.2567L87.6357 42.2718L87.6356 42.2717L80.5842 66.2567ZM91.1179 70.5507L103.385 48.7675L103.385 48.767L91.1179 70.5507ZM91.6931 70.7545L92.3491 95.7459L101.973 95.4933L108.942 88.8509L91.6931 70.7545ZM91.7761 70.1301L116.482 66.3048L116.482 66.3044L91.7761 70.1301ZM90.0622 58.5114L114.666 54.0801L114.666 54.08L90.0622 58.5114ZM88.8228 50.3419L64.0735 53.8735L64.0735 53.8735L88.8228 50.3419ZM86.9654 37.7748L111.747 34.4785L111.747 34.4784L86.9654 37.7748ZM85.7074 29.5907L60.956 33.1071L60.956 33.1071L85.7074 29.5907ZM84.4693 20.4795L59.7044 23.8999L59.7044 23.8999L84.4693 20.4795ZM83.6619 14.8829L108.421 11.4226L108.421 11.4224L83.6619 14.8829ZM84.361 14.071L83.9098 -10.925L83.9096 -10.925L84.361 14.071ZM86.1525 14.3568L95.919 -8.65652L95.919 -8.65653L86.1525 14.3568ZM87.7204 16.5165L112.437 12.764L112.437 12.764L87.7204 16.5165ZM89.2559 26.6877L64.5353 30.4151L64.5353 30.4151L89.2559 26.6877ZM91.3582 40.7157L66.5981 44.1705L66.5981 44.1705L91.3582 40.7157ZM93.1824 52.5008L68.4757 56.3192L68.4757 56.3192L93.1824 52.5008ZM95.0603 64.8269L119.774 61.056L119.774 61.0559L95.0603 64.8269ZM96.1042 71.621L71.3889 75.3832L71.3889 75.3832L96.1042 71.621ZM95.1215 74.1545L108.24 95.4361L108.24 95.436L95.1215 74.1545ZM94.121 74.3296L94.1279 99.3296L94.1281 99.3296L94.121 74.3296ZM58.1741 74.3216L58.1395 99.3216L58.1395 99.3216L58.1741 74.3216ZM56.9153 75.0235L35.6554 61.8699L35.6554 61.8699L56.9153 75.0235ZM47.1151 79.9548L48.5478 54.9959L48.5477 54.9959L47.1151 79.9548ZM39.1355 75.0015L17.6469 87.7781L17.6469 87.7781L39.1355 75.0015ZM37.6339 74.3345L37.6162 99.3345L37.6163 99.3345L37.6339 74.3345ZM24.8217 49.3337C17.3351 49.3326 9.60672 49.3038 1.94183 49.3569L2.28834 99.3557C9.71755 99.3042 17.0844 99.3326 24.8147 99.3337L24.8217 49.3337ZM1.94179 49.3569C16.1874 49.2581 26.846 62.0299 24.7364 75.7179L-24.6801 68.1017C-27.2046 84.4816 -14.6207 99.4729 2.28838 99.3557L1.94179 49.3569ZM24.7364 75.7179C25.4228 71.2644 26.1018 66.808 26.7769 62.3873L-22.6502 54.8398C-23.3288 59.2837 -24.0005 63.6924 -24.6801 68.1017L24.7364 75.7179ZM26.7769 62.3873C27.5578 57.273 28.3392 52.144 29.1181 47.0393L-20.3098 39.4973C-21.0919 44.6226 -21.8691 49.7242 -22.6502 54.8398L26.7769 62.3873ZM29.1181 47.0393C29.7526 42.8808 30.4031 38.6449 31.0409 34.438L-18.3942 26.9435C-19.0278 31.1228 -19.6649 35.2707 -20.3098 39.4973L29.1181 47.0393ZM31.0409 34.438C31.6418 30.474 32.3221 25.9215 32.911 22.0314L-16.5256 14.5467C-17.1882 18.9235 -17.7419 22.6407 -18.3942 26.9435L31.0409 34.438ZM32.911 22.0314C32.9338 21.8807 32.9503 21.7728 32.965 21.6793C32.9792 21.5885 32.9884 21.5325 32.9941 21.4991C33.0062 21.4272 32.9958 21.4976 32.9617 21.6551L-15.909 11.0883C-16.2328 12.586 -16.4354 13.9511 -16.5256 14.5467L32.911 22.0314ZM32.9617 21.6552C32.3986 24.2591 30.7395 29.2215 25.9347 33.4653C21.1177 37.7199 15.9648 38.7577 13.262 38.9897L8.98642 -10.8271C4.79368 -10.4673 -1.50039 -9.01339 -7.16504 -4.01016C-12.8175 0.982285 -15.0306 7.02588 -15.909 11.0882L32.9617 21.6552ZM13.2619 38.9897C13.4888 38.9702 13.6803 38.9514 13.761 38.9434C13.8876 38.9309 13.843 38.9353 13.8274 38.9367C13.7645 38.9427 13.3172 38.9856 12.7094 39.0065C11.406 39.0511 9.07522 39.0131 6.26981 38.2759L18.9773 -10.0823C15.6386 -10.9597 12.7967 -11.0259 10.9962 -10.9642C10.1398 -10.9348 9.44756 -10.872 9.14209 -10.8433C9.05922 -10.8355 8.98779 -10.8285 8.94053 -10.8238C8.91684 -10.8215 8.8947 -10.8193 8.87999 -10.8178C8.86298 -10.8161 8.85444 -10.8153 8.84648 -10.8145C8.80703 -10.8106 8.87883 -10.8179 8.98648 -10.8271L13.2619 38.9897ZM-12.1369 10.6443C-14.8817 30.329 -17.5839 47.1194 -20.4692 67.4442L29.0345 74.4716C31.5489 56.7596 34.8415 35.7835 37.384 17.5493L-12.1369 10.6443ZM13.7913 94.079C15.7839 93.2596 17.3424 92.3837 17.9966 92.0146C18.1603 91.9222 18.3329 91.8237 18.4097 91.78C18.5119 91.7218 18.5462 91.7026 18.56 91.6949C18.5914 91.6774 18.3838 91.7948 18.05 91.9584L-3.95457 47.0608C-4.74101 47.4462 -5.39238 47.8029 -5.80416 48.0327C-6.01198 48.1486 -6.19915 48.255 -6.3192 48.3234C-6.46467 48.4061 -6.51515 48.435 -6.57644 48.4696C-6.68281 48.5296 -6.56843 48.4629 -6.35629 48.3544C-6.12843 48.238 -5.73918 48.0479 -5.22598 47.8368L13.7913 94.079ZM18.05 91.9584C20.986 90.5194 23.1055 89.9282 24.7424 89.7433L19.1312 40.0591C10.2785 41.0589 2.55338 43.8712 -3.95456 47.0608L18.05 91.9584ZM21.7073 86.4811C21.5357 86.2287 21.4116 86.0312 21.3434 85.9202C21.2786 85.8148 21.2483 85.7614 21.2791 85.8144C21.2935 85.8392 21.3144 85.8753 21.3509 85.9389C21.3695 85.9712 21.3874 86.0023 21.4113 86.044C21.4337 86.0829 21.4599 86.1285 21.4875 86.1764C21.5958 86.3646 21.7561 86.6418 21.9431 86.9561L64.9123 61.3896C64.9068 61.3803 64.8849 61.3432 64.817 61.2253C64.7796 61.1604 64.6263 60.893 64.5099 60.6928C64.25 60.2456 63.7334 59.365 63.05 58.3602L21.7073 86.4811ZM68.406 73.1303C67.9579 62.3943 63.0413 53.6673 56.045 47.5647L23.1782 85.2447C22.3006 84.4791 21.039 83.1176 20.0097 81.0704C18.9548 78.9723 18.5197 76.8991 18.4495 75.2154L68.406 73.1303ZM56.045 47.5647C46.8887 39.5781 36.4672 37.1648 27.9677 36.7908L25.7698 86.7425C26.3177 86.7666 26.1335 86.8229 25.5154 86.6105C24.805 86.3665 23.9417 85.9106 23.1782 85.2447L56.045 47.5647ZM27.9677 36.7908C18.1242 36.3577 9.37106 38.6426 1.9894 41.8217L21.7671 87.7438C23.9552 86.8015 25.1444 86.7149 25.7699 86.7425L27.9677 36.7908ZM1.98958 41.8216C1.86661 41.8746 1.97688 41.8258 2.15727 41.7538C2.35369 41.6754 2.74284 41.5247 3.26321 41.356L18.6772 88.9208C20.2222 88.4201 21.4935 87.8617 21.767 87.7439L1.98958 41.8216ZM3.26332 41.356C9.33559 39.3882 17.4066 39.7745 24.2716 44.9501C31.2683 50.2249 33.9473 58.1766 33.4983 64.9515L-16.3923 61.6449C-16.9351 69.8353 -13.7203 78.9251 -5.82802 84.8752C1.93272 90.726 11.2592 91.3247 18.6771 88.9208L3.26332 41.356ZM33.4983 64.9514C33.472 65.3473 33.4373 65.5431 33.4744 65.2797C33.4937 65.1433 33.5141 65.0068 33.5584 64.7085C33.5963 64.4536 33.6533 64.0688 33.7101 63.6513L-15.8333 56.9099C-15.9405 57.6973 -15.8329 56.8598 -16.0354 58.2954C-16.14 59.037 -16.2991 60.2391 -16.3923 61.6449L33.4983 64.9514ZM33.7101 63.6513C34.0673 61.0267 34.4093 58.4962 34.7635 55.9621L-14.7552 49.0409C-15.1256 51.6909 -15.4847 54.3478 -15.8333 56.9099L33.7101 63.6513ZM34.7635 55.9621C35.0942 53.5961 35.6097 50.0609 35.9747 47.4173L-13.5555 40.5795C-13.9736 43.6075 -14.2933 45.7366 -14.7552 49.0409L34.7635 55.9621ZM35.9747 47.4173C36.4823 43.7407 36.9811 39.998 37.4639 36.4353L-12.0831 29.7207C-12.587 33.4384 -13.0584 36.9783 -13.5555 40.5795L35.9747 47.4173ZM37.4639 36.4353C38.1334 31.4952 38.7588 26.7776 39.4257 21.9989L-10.0945 15.0888C-10.7791 19.9947 -11.4395 24.9709 -12.0831 29.7207L37.4639 36.4353ZM39.4257 21.9989C40.2138 16.3511 40.4868 13.4092 41.1745 9.04242L-8.21668 1.26356C-8.93087 5.79824 -9.6376 11.8142 -10.0945 15.0888L39.4257 21.9989ZM41.1745 9.04241C40.6675 12.2618 39.282 16.0879 36.3921 19.5901C33.5547 23.0286 30.2553 24.9591 27.6903 25.9844L9.13184 -20.4438C5.48497 -18.9861 1.31308 -16.4581 -2.17316 -12.2332C-5.71197 -7.94472 -7.52258 -3.14354 -8.21668 1.26356L41.1745 9.04241ZM27.6902 25.9844C29.9062 25.0987 31.3743 24.9489 32.4272 25.0133L35.4782 -24.8935C25.7645 -25.4874 16.8956 -23.5472 9.13186 -20.4439L27.6902 25.9844ZM32.4272 25.0133C32.3059 25.0059 32.6277 24.9946 33.5576 25.3941L53.2934 -20.546C48.1574 -22.7525 42.1769 -24.484 35.4781 -24.8936L32.4272 25.0133ZM33.5575 25.3941C33.5429 25.3878 33.1088 25.203 32.4625 24.7963C31.7869 24.3711 30.8806 23.7046 29.9351 22.7342L65.749 -12.1565C61.3437 -16.6784 56.564 -19.141 53.2934 -20.546L33.5575 25.3941ZM29.9352 22.7343C31.0579 23.8867 36.7049 29.7112 46.349 30.4058C57.2214 31.1888 64.1125 25.061 66.3428 22.7755L30.5582 -12.1453C32.5677 -14.2045 39.2631 -20.2341 49.9408 -19.4651C59.3901 -18.7845 64.8432 -13.0863 65.7489 -12.1566L29.9352 22.7343ZM66.3427 22.7756C65.0212 24.1298 63.6995 24.8363 63.0159 25.1294C62.5055 25.3483 62.485 25.273 63.7146 25.016L53.4869 -23.9267C48.686 -22.9235 38.7908 -20.5814 30.5583 -12.1454L66.3427 22.7756ZM63.7146 25.016C63.5515 25.0501 63.8557 24.9535 64.9489 25.053L69.4807 -24.7412C64.7982 -25.1674 59.3399 -25.1498 53.4869 -23.9267L63.7146 25.016ZM64.9489 25.053C65.6687 25.1185 66.8208 25.3539 68.6429 26.1071L87.7432 -20.1009C82.512 -22.2632 76.3895 -24.1124 69.4807 -24.7412L64.9489 25.053ZM68.6429 26.1071C64.5692 24.4232 60.9135 21.4786 58.3538 17.5425C56.0016 13.9254 55.2571 10.5323 54.9981 8.58979L104.56 1.98329C103.672 -4.67592 99.614 -15.194 87.7432 -20.1009L68.6429 26.1071ZM54.9981 8.58975C55.5247 12.54 56.0621 16.6215 56.6122 20.6675L106.156 13.9309C105.618 9.97102 105.101 6.04188 104.56 1.98334L54.9981 8.58975ZM56.6122 20.6676C57.1749 24.8056 57.8491 29.6032 58.394 33.5896L107.933 26.818C107.302 22.1999 106.764 18.3981 106.156 13.9309L56.6122 20.6676ZM58.394 33.5896C58.9077 37.3476 59.4937 41.7957 60.0417 45.757L109.57 38.9054C109 34.785 108.525 31.1436 107.933 26.8181L58.394 33.5896ZM60.0417 45.7571C60.2981 47.6104 60.5623 49.4509 60.8165 51.221C61.0736 53.0116 61.3204 54.7294 61.5576 56.4393L111.083 49.5686C110.827 47.7194 110.562 45.8805 110.309 44.1143C110.052 42.3276 109.806 40.6114 109.57 38.9054L60.0417 45.7571ZM61.5576 56.4393C62.018 59.7582 62.4644 63.0925 62.9042 66.4477L112.48 59.9505C112.029 56.5059 111.565 53.0426 111.083 49.5686L61.5576 56.4393ZM62.9041 66.4474C61.7056 57.3017 65.9719 49.7739 71.1406 45.529C76.3286 41.2682 84.6925 38.4767 93.5822 41.6141L76.9418 88.7638C96.171 95.5503 115.019 79.3265 112.48 59.9508L62.9041 66.4474ZM93.5824 41.6141C93.1894 41.4754 92.7339 41.3032 91.974 41.0112C91.3092 40.7558 90.2949 40.3632 89.2521 39.9863L72.2563 87.0091C72.7227 87.1776 73.2058 87.3637 74.0393 87.684C74.7777 87.9677 75.8215 88.3684 76.9416 88.7637L93.5824 41.6141ZM89.2522 39.9863C82.5065 37.5481 75.4199 36.4617 68.213 36.7985L70.5467 86.744C71.1306 86.7167 71.6512 86.7904 72.2562 87.009L89.2522 39.9863ZM68.2131 36.7985C61.6475 37.1052 53.0871 38.576 44.8032 43.8937L71.8136 85.9703C71.0608 86.4536 70.419 86.676 70.1045 86.7603C69.8382 86.8317 69.9242 86.7731 70.5466 86.744L68.2131 36.7985ZM44.8032 43.8937C36.4235 49.2729 29.4303 58.1856 27.9128 70.3705L77.5294 76.5498C77.2934 78.4454 76.5733 80.5524 75.2721 82.4868C74.0233 84.3434 72.6532 85.4313 71.8136 85.9703L44.8032 43.8937ZM27.9126 70.3718C28.1009 68.8588 27.2831 73.3221 28.0773 77.9258C29.1244 83.9954 32.1863 88.7656 35.6413 92.0461L70.0693 55.7871C73.3422 58.8947 76.3283 63.5063 77.3495 69.4257C78.1178 73.8793 77.3239 78.2007 77.5296 76.5484L27.9126 70.3718ZM74.0899 87.111C74.4826 86.4789 74.6981 86.1278 74.9749 85.6868L32.6267 59.1043C32.2743 59.6657 31.8691 60.3225 31.6207 60.7222L74.0899 87.111ZM74.975 85.6867C74.1991 86.9228 73.1673 87.98 72.083 88.7502C71.0772 89.4646 70.3504 89.7041 70.3039 89.7192L54.8877 42.1552C47.2278 44.6378 38.6077 49.576 32.6267 59.1043L74.975 85.6867ZM70.3038 89.7193C70.2269 89.7442 70.2188 89.7364 70.3263 89.7238C70.4438 89.7101 70.7176 89.6888 71.1932 89.7106L73.4883 39.7633C67.7894 39.5014 61.4547 40.0267 54.8878 42.1551L70.3038 89.7193ZM71.1932 89.7106C71.2633 89.7138 71.8845 89.7571 73.5328 90.2416L87.6356 42.2717C83.8926 41.1713 79.0419 40.0185 73.4883 39.7633L71.1932 89.7106ZM73.5327 90.2416C76.0193 90.9727 77.6687 91.6685 78.8512 92.3344L103.385 48.767C97.9065 45.6822 92.4627 43.6909 87.6357 42.2718L73.5327 90.2416ZM78.8503 92.3338C78.432 92.0983 79.0709 92.4592 79.2848 92.5758C79.714 92.8098 80.5701 93.2636 81.6881 93.7342C84.0896 94.745 87.7687 95.8661 92.3491 95.7459L91.0371 45.7631C95.3904 45.6488 98.8699 46.7176 101.084 47.6497C102.109 48.081 102.875 48.4889 103.215 48.6744C103.34 48.7426 103.892 49.0526 103.385 48.7675L78.8503 92.3338ZM108.942 88.8509C111.682 86.2392 113.831 83.0237 115.19 79.4114C116.498 75.9365 116.802 72.8227 116.818 70.6295C116.833 68.5359 116.58 66.9021 116.486 66.3181C116.458 66.1458 116.434 66.0051 116.419 65.9187C116.411 65.8746 116.405 65.8382 116.401 65.8156C116.399 65.8041 116.397 65.7944 116.396 65.7883C116.395 65.7853 116.395 65.7825 116.394 65.7808C116.394 65.7787 116.394 65.7781 116.394 65.7774C116.384 65.723 116.432 65.9843 116.482 66.3048L67.0705 73.9555C67.1023 74.1607 67.1308 74.3291 67.1496 74.4371C67.1674 74.54 67.1829 74.6259 67.1853 74.639C67.2019 74.7313 67.161 74.5091 67.1207 74.2584C67.0441 73.7821 66.8047 72.2574 66.8189 70.2715C66.8339 68.1861 67.1235 65.1786 68.3923 61.8059C69.7128 58.296 71.8 55.1785 74.4443 52.6581L108.942 88.8509ZM116.482 66.3044C116.177 64.3381 115.364 57.9554 114.666 54.0801L65.4581 62.9428C66.1486 66.7767 66.1768 68.1845 67.0706 73.9559L116.482 66.3044ZM114.666 54.08C114.283 51.9509 114.011 49.8828 113.572 46.8104L64.0735 53.8735C64.4135 56.256 64.8647 59.648 65.4581 62.9428L114.666 54.08ZM113.572 46.8104C112.81 41.4706 112.33 38.8591 111.747 34.4785L62.1837 41.0711C62.7177 45.086 63.6393 50.83 64.0735 53.8735L113.572 46.8104ZM111.747 34.4784C111.513 32.722 111.244 31.0451 111.024 29.6873C110.788 28.2283 110.611 27.1455 110.459 26.0744L60.956 33.1071C61.192 34.7684 61.4617 36.4091 61.6665 37.6746C61.8877 39.0414 62.0532 40.0902 62.1837 41.0711L111.747 34.4784ZM110.459 26.0744C110.015 22.9505 109.722 20.5926 109.234 17.059L59.7044 23.8999C60.055 26.4387 60.5376 30.162 60.956 33.1071L110.459 26.0744ZM109.234 17.059C109.112 16.1735 108.473 11.7917 108.421 11.4226L58.9026 18.3433C59.3728 21.7075 59.3109 21.0513 59.7044 23.8999L109.234 17.059ZM108.421 11.4224C108.422 11.4259 108.467 11.7386 108.51 12.1742C108.549 12.5743 108.637 13.5481 108.617 14.8138C108.587 16.8032 108.298 24.1105 102.413 30.7619C96.6277 37.3009 89.5497 38.5167 87.8234 38.7897C86.6532 38.9747 85.744 39.0274 85.4026 39.0451C85.1935 39.0559 85.0324 39.0611 84.9478 39.0636C84.9024 39.0649 84.8674 39.0657 84.8464 39.0662C84.8253 39.0666 84.8126 39.0669 84.8124 39.0669L83.9096 -10.925C83.7742 -10.9225 83.3372 -10.9149 82.8178 -10.8881C82.3297 -10.8628 81.2937 -10.799 80.0143 -10.5967C78.0697 -10.2892 70.8441 -9.01413 64.965 -2.369C58.9865 4.3885 58.6565 11.8487 58.6231 14.0595C58.6024 15.4361 58.6973 16.5377 58.7514 17.0856C58.809 17.6691 58.8755 18.1496 58.9026 18.3434L108.421 11.4224ZM84.8121 39.0669C83.8725 39.0838 80.4498 39.0948 76.386 37.3702L95.919 -8.65653C90.7016 -10.8707 86.0805 -10.9642 83.9098 -10.925L84.8121 39.0669ZM76.386 37.3702C72.7589 35.8309 69.2746 33.189 66.6866 29.4512C64.2444 25.9241 63.3426 22.5014 63.0036 20.2691L112.437 12.764C111.312 5.35233 106.688 -4.08642 95.919 -8.65652L76.386 37.3702ZM63.0036 20.269C63.5158 23.6423 64.0218 27.0091 64.5353 30.4151L113.976 22.9603C113.468 19.5853 112.954 16.1707 112.437 12.764L63.0036 20.269ZM64.5353 30.4151C65.2826 35.3712 65.9693 39.6638 66.5981 44.1705L116.118 37.2609C115.44 32.4024 114.639 27.3551 113.976 22.9603L64.5353 30.4151ZM66.5981 44.1705C67.1764 48.315 67.9525 52.9339 68.4757 56.3192L117.889 48.6824C117.198 44.2108 116.639 40.9927 116.118 37.2609L66.5981 44.1705ZM68.4757 56.3192C69.1074 60.4064 69.7047 64.3926 70.3464 68.5979L119.774 61.0559C119.162 57.0441 118.527 52.8099 117.889 48.6824L68.4757 56.3192ZM70.3464 68.5978C70.7478 71.2286 71.0067 72.8724 71.3889 75.3832L120.82 67.8588C120.512 65.8392 120.064 62.9553 119.774 61.056L70.3464 68.5978ZM71.3889 75.3832C71.1514 73.8227 70.6518 69.338 72.7607 63.9914C75.1034 58.0523 79.2197 54.5887 82.0028 52.8731L108.24 95.436C111.906 93.1764 116.611 89.0872 119.273 82.3378C121.702 76.1811 121.252 70.7016 120.82 67.8588L71.3889 75.3832ZM82.003 52.873C85.7542 50.5606 89.3726 49.7487 91.8525 49.4718C92.969 49.3471 93.8346 49.3341 94.1643 49.3313C94.3335 49.3299 94.4593 49.3311 94.4318 49.3309C94.4255 49.3309 94.4253 49.3309 94.4068 49.3308C94.3934 49.3306 94.371 49.3305 94.3454 49.3303C94.295 49.33 94.2126 49.3295 94.1139 49.3296L94.1281 99.3296C94.0472 99.3296 93.9526 99.3288 94.065 99.3296C94.1222 99.33 94.3325 99.3317 94.586 99.3296C95.0843 99.3254 96.1175 99.3063 97.4008 99.163C100.214 98.8489 104.163 97.9494 108.24 95.4361L82.003 52.873ZM94.1141 49.3296C82.124 49.3329 70.1655 49.3382 58.2086 49.3216L58.1395 99.3216C70.1472 99.3382 82.1533 99.3329 94.1279 99.3296L94.1141 49.3296ZM58.2087 49.3216C55.5057 49.3179 50.5744 49.697 45.3161 52.6127C40.0542 55.5304 37.1087 59.5209 35.6554 61.8699L78.1751 88.1771C77.045 90.0038 74.4272 93.6429 69.5631 96.34C64.7026 99.0352 60.2391 99.3245 58.1395 99.3216L58.2087 49.3216ZM35.6554 61.8699C36.7229 60.1445 38.6946 57.9896 41.7198 56.5038C44.641 55.069 47.1961 54.9183 48.5478 54.9959L45.6824 104.914C58.1111 105.627 70.6353 100.364 78.1752 88.1771L35.6554 61.8699ZM48.5477 54.9959C50.6214 55.115 53.2276 55.7654 55.7755 57.3659C58.2733 58.935 59.8009 60.8406 60.6241 62.225L17.6469 87.7781C23.3959 97.4472 33.3054 104.203 45.6824 104.914L48.5477 54.9959ZM60.6241 62.225C57.4908 56.9553 52.6064 52.8705 46.6416 50.8066C41.9772 49.1926 37.8197 49.3346 37.6515 49.3345L37.6163 99.3345C37.6163 99.3345 36.7752 99.3417 35.6715 99.2355C34.5053 99.1232 32.5748 98.8478 30.2918 98.0579C24.8361 96.1701 20.4061 92.4187 17.6469 87.7781L60.6241 62.225ZM37.6516 49.3345C33.3869 49.3314 29.1166 49.3333 24.8161 49.3337L24.8203 99.3337C29.145 99.3333 33.3778 99.3315 37.6162 99.3345L37.6516 49.3345ZM56.2154 11.9625L101.548 -9.13057L99.3121 -13.9369L96.1176 -18.1675L56.2154 11.9625ZM51.5357 8.85071L68.3895 -38.2231L3.09963 -61.5988L1.54819 7.73213L51.5357 8.85071ZM51.9202 9.41262L80.9729 -31.2807L80.9722 -31.2811L51.9202 9.41262ZM54.2589 11.3569L16.0558 43.614L16.0561 43.6143L54.2589 11.3569ZM54.2382 15.1977L16.737 -17.8728L16.7368 -17.8726L54.2382 15.1977ZM51.9809 16.94L29.3551 -27.6479L29.3548 -27.6477L51.9809 16.94ZM46.639 19.618L24.8195 -25.3698L24.8194 -25.3698L46.639 19.618ZM39.814 24.0405L74.6719 59.8864L74.6719 59.8864L39.814 24.0405ZM38.2453 33.0079L82.9246 10.5632L82.9245 10.5631L38.2453 33.0079ZM42.1635 37.7872L74.5009 -0.347994L74.5008 -0.348039L42.1635 37.7872ZM50.5333 43.8914L23.0477 85.6591L23.0478 85.6592L50.5333 43.8914ZM66.8575 54.5891L95.0186 13.2738L95.0178 13.2733L66.8575 54.5891ZM67.2604 55.0583L99.6192 93.1754L114.412 80.6176L116.861 61.3689L67.2604 55.0583ZM66.5149 55.2832L74.068 104.709L74.0683 104.709L66.5149 55.2832ZM59.9823 56.746L43.8832 9.40875L43.8831 9.40877L59.9823 56.746ZM48.3679 66.5922L93.491 88.1307L93.4912 88.1302L48.3679 66.5922ZM48.0804 66.8162L10.0781 99.3096L23.9807 115.569L45.3417 116.741L48.0804 66.8162ZM47.9493 66.6584L1.58546 85.3773L1.58581 85.3781L47.9493 66.6584ZM41.6115 57.8717L77.0288 22.5785L77.0288 22.5785L41.6115 57.8717ZM36.3125 52.9249L2.31405 89.5869L2.31422 89.5871L36.3125 52.9249ZM30.1382 47.0448L65.63 11.8265L65.6299 11.8264L30.1382 47.0448ZM24.496 39.3774L-20.659 60.849L-20.659 60.849L24.496 39.3774ZM23.2564 32.1425L-26.4392 26.6338L-26.4392 26.6338L23.2564 32.1425ZM27.9779 23.733L-5.37117 -13.5207L-5.37127 -13.5206L27.9779 23.733ZM36.0821 19.09L17.8475 -27.4664L17.8475 -27.4664L36.0821 19.09ZM44.6479 15.9034L62.1114 62.7544L62.1115 62.7544L44.6479 15.9034ZM48.183 14.1489L17.25 -25.1341L17.2499 -25.134L48.183 14.1489ZM48.8148 10.6635L6.64615 37.53L6.64629 37.5302L48.8148 10.6635ZM47.5075 9.22647L79.3325 -29.3373L79.3325 -29.3373L47.5075 9.22647ZM43.1242 6.35955L66.2476 -37.9723L66.2475 -37.9723L43.1242 6.35955ZM33.7619 3.66081L37.3993 -46.2067L37.3992 -46.2067L33.7619 3.66081ZM25.7012 4.27161L36.4568 53.1011L36.4568 53.1011L25.7012 4.27161ZM20.7031 5.82909L0.423863 -39.8738L0.423715 -39.8737L20.7031 5.82909ZM20.0959 6.43431L-29.4608 -0.208895L-29.4608 -0.208744L20.0959 6.43431ZM19.4992 10.5937L69.0586 17.2171L69.0586 17.2168L19.4992 10.5937ZM18.4267 18.8097L67.9946 25.3689L67.9946 25.3689L18.4267 18.8097ZM17.1649 28.2306L66.7256 34.8443L66.7256 34.8442L17.1649 28.2306ZM16.0984 36.264L-33.4541 29.5895L-33.4541 29.5896L16.0984 36.264ZM14.8507 45.4377L64.4166 52.012L64.4166 52.012L14.8507 45.4377ZM13.3283 57.1564L-36.2758 50.8771L-36.2759 50.8772L13.3283 57.1564ZM13.0061 60.2458L-36.9874 61.0531L-36.2652 105.776L8.26223 110.02L13.0061 60.2458ZM14.1601 59.9654L30.6203 107.178L30.6206 107.178L14.1601 59.9654ZM23.9867 58.0395L21.2033 8.11708L21.2033 8.11708L23.9867 58.0395ZM35.0287 59.5361L50.7992 12.0884L50.7991 12.0883L35.0287 59.5361ZM44.3782 66.0272L3.59442 94.9527L3.59447 94.9528L44.3782 66.0272ZM46.8219 73.4144L96.8127 74.3728L96.8127 74.3727L46.8219 73.4144ZM46.8259 75.6724L96.8166 76.6366L96.8166 76.6365L46.8259 75.6724ZM47.3433 76.2302L49.1449 126.198L49.1456 126.198L47.3433 76.2302ZM48.7468 76.2339L50.3552 26.2598L50.3549 26.2598L48.7468 76.2339ZM49.3234 75.6528L99.3122 74.5966L99.3122 74.5955L49.3234 75.6528ZM49.3206 73.2117L99.3198 72.9352L99.3198 72.9349L49.3206 73.2117ZM51.7646 65.9405L11.1029 36.8435L11.1029 36.8436L51.7646 65.9405ZM60.6646 59.6114L44.4162 12.3251L44.4162 12.3251L60.6646 59.6114ZM72.9697 58.1073L76.4292 8.22709L76.4291 8.22709L72.9697 58.1073ZM82.5902 60.1517L66.4988 107.492L66.4988 107.492L82.5902 60.1517ZM83.3013 60.2561L101.741 106.732L133.606 94.0886L133.299 59.8083L83.3013 60.2561ZM83.0421 58.1492L33.4826 64.7711L33.4826 64.7714L83.0421 58.1492ZM82.2854 57.2405L65.048 104.175L65.0492 104.176L82.2854 57.2405ZM78.8645 55.9429L60.3137 102.374L60.3141 102.374L78.8645 55.9429ZM70.9825 51.6918L45.7149 94.8374L45.715 94.8375L70.9825 51.6918ZM54.6435 42.0595L80.8444 -0.52579L80.8443 -0.525851L54.6435 42.0595ZM45.6939 36.0354L77.6069 -2.45566L77.6068 -2.45572L45.6939 36.0354ZM42.168 32.1162L86.0269 8.10796L86.0269 8.10792L42.168 32.1162ZM42.1859 25.6242L85.1481 51.2024L85.1482 51.2023L42.1859 25.6242ZM45.1261 22.6486L74.6674 62.9886L74.6676 62.9885L45.1261 22.6486ZM50.4334 19.5312L75.2323 62.948L75.2324 62.9479L50.4334 19.5312ZM55.4359 16.2972L20.4638 -19.4372L20.4638 -19.4372L55.4359 16.2972ZM79.3357 30.0684L128.952 23.8819L128.757 22.3207L128.464 20.7748L79.3357 30.0684ZM79.2463 29.5891L128.817 23.0494L128.816 23.0472L79.2463 29.5891ZM77.8593 19.1477L127.313 11.7799L127.313 11.7797L77.8593 19.1477ZM76.1634 6.66372L26.8425 14.876L26.8426 14.8771L76.1634 6.66372ZM75.529 5.85151L57.45 52.4686L57.4501 52.4686L75.529 5.85151ZM66.7468 3.67298L71.2685 -46.1221L71.2685 -46.1221L66.7468 3.67298ZM55.1471 5.3458L36.9275 -41.2165L36.9274 -41.2164L55.1471 5.3458ZM52.5095 6.55801L25.1686 -35.3046L-7.43915 -14.0081L5.2281 22.8205L52.5095 6.55801ZM53.1489 7.01554L34.1473 53.2642L34.1475 53.2643L53.1489 7.01554ZM56.9292 8.55871L37.0073 54.4185L37.0074 54.4185L56.9292 8.55871ZM61.7617 11.662L99.1909 -21.4901L99.1908 -21.4902L61.7617 11.662ZM62.6903 16.6967L109.211 35.0235L109.211 35.0233L62.6903 16.6967ZM60.0552 19.9168L92.9062 57.6104L92.9062 57.6104L60.0552 19.9168ZM55.0737 24.2001L17.0297 -8.24452L17.0296 -8.24448L55.0737 24.2001ZM54.6687 30.2084L95.9686 2.02463L95.9685 2.02458L54.6687 30.2084ZM56.8806 32.3692L85.5375 -8.60374L85.5374 -8.60381L56.8806 32.3692ZM64.0383 36.2737L43.6295 81.9189L43.6295 81.9189L64.0383 36.2737ZM79.4119 42.4598L96.5084 -4.52648L96.508 -4.52663L79.4119 42.4598ZM80.8576 42.915L79.8207 92.9043L109.353 93.5168L124.141 67.9462L80.8576 42.915ZM80.9125 42.3698L31.3136 48.6907L31.3137 48.6912L80.9125 42.3698ZM80.2532 37.3015L129.843 30.9085L129.843 30.9084L80.2532 37.3015ZM96.1176 -18.1675C86.4454 -30.9767 74.2307 -36.1318 68.3895 -38.2231L34.6818 55.9246C32.5591 55.1646 23.6093 51.7549 16.3133 42.0926L96.1176 -18.1675ZM1.54819 7.73213C1.43855 12.6317 2.00105 19.2498 4.70451 26.5212C7.55613 34.1911 11.9955 40.4497 16.9588 45.236C21.4097 49.5282 25.6449 51.968 26.6036 52.5272C29.2322 54.0603 25.3274 51.862 22.8683 50.1064L80.9722 -31.2811C78.4359 -33.0919 74.4433 -35.3364 76.9839 -33.8547C77.8546 -33.3469 82.0016 -30.9634 86.3744 -26.7464C91.2597 -22.0353 95.6313 -15.8708 98.4358 -8.32763C101.092 -1.18301 101.628 5.2757 101.523 9.9693L1.54819 7.73213ZM22.8676 50.1059C23.0474 50.2343 23.2467 50.3755 23.2942 50.4091C23.3818 50.4714 23.3677 50.4616 23.3225 50.429C23.2394 50.3692 22.799 50.052 22.2028 49.5822C21.0189 48.6492 18.6282 46.6605 16.0558 43.614L92.4621 -20.9003C89.224 -24.7352 86.0777 -27.4006 84.0977 -28.961C82.4774 -30.2378 80.525 -31.6004 80.9729 -31.2807L22.8676 50.1059ZM16.0561 43.6143C11.2349 37.9044 5.02144 27.4738 5.06654 13.1297C5.11209 -1.35808 11.5126 -11.9484 16.737 -17.8728L91.7395 48.2682C98.0668 41.0931 105.016 29.2205 105.066 13.4441C105.115 -2.1887 98.3607 -13.9144 92.4618 -20.9005L16.0561 43.6143ZM16.7368 -17.8726C20.3864 -22.0112 24.7138 -25.2927 29.3551 -27.6479L74.6066 61.5278C80.9689 58.2993 86.8126 53.8552 91.7396 48.268L16.7368 -17.8726ZM29.3548 -27.6477C27.3517 -26.6312 26.0978 -25.9898 24.8195 -25.3698L68.4585 64.6059C70.7643 63.4876 73.0575 62.3139 74.607 61.5276L29.3548 -27.6477ZM24.8194 -25.3698C21.5014 -23.7605 12.9968 -19.6244 4.95618 -11.8054L74.6719 59.8864C72.5142 61.9846 70.5752 63.3144 69.4409 64.0193C68.4082 64.6611 67.8113 64.9198 68.4585 64.6059L24.8194 -25.3698ZM4.95621 -11.8055C-12.7343 5.39739 -18.1487 32.133 -6.43383 55.4528L82.9245 10.5631C86.4606 17.6021 88.4936 26.8694 86.6967 36.998C84.9153 47.0389 79.9369 54.7666 74.6719 59.8864L4.95621 -11.8055ZM-6.43389 55.4527C-1.59685 65.0815 4.83188 71.6875 9.82621 75.9225L74.5008 -0.348039C76.3121 1.18783 79.9833 4.70827 82.9246 10.5632L-6.43389 55.4527ZM9.82616 75.9224C14.8176 80.155 19.6808 83.4435 23.0477 85.6591L78.0189 2.12366C75.6064 0.536105 74.7881 -0.104415 74.5009 -0.347994L9.82616 75.9224ZM23.0478 85.6592C29.87 90.1486 33.6055 92.4345 38.6971 95.9049L95.0178 13.2733C89.3563 9.4144 82.0659 4.78682 78.0187 2.12359L23.0478 85.6592ZM38.6964 95.9044C41.8397 98.0469 45.2073 99.691 43.978 99.0534C43.8915 99.0086 43.0027 98.5519 41.9057 97.913C40.7704 97.2518 38.9464 96.1308 36.8448 94.5305C32.5558 91.2645 26.2273 85.3237 21.8453 75.8363C17.3243 66.0479 16.6841 56.4202 17.6603 48.7478L116.861 61.3689C117.856 53.5423 117.196 43.7931 112.63 33.9055C108.202 24.319 101.802 18.3016 97.4278 14.971C95.2838 13.3384 93.4142 12.1882 92.2317 11.4995C91.0875 10.8331 90.15 10.3508 90.0148 10.2806C88.6881 9.59263 91.9588 11.1882 95.0186 13.2738L38.6964 95.9044ZM34.9016 16.9413C43.0225 10.0473 51.3468 7.46128 56.0686 6.4132C58.2166 5.93645 59.9131 5.72038 60.2388 5.67787C61.288 5.54094 59.7232 5.74058 58.9615 5.85699L74.0683 104.709C73.4359 104.806 72.0018 104.991 73.181 104.837C73.6366 104.777 75.4625 104.542 77.7373 104.037C82.7128 102.933 91.2806 100.254 99.6192 93.1754L34.9016 16.9413ZM58.9619 5.85693C56.1025 6.29389 50.3388 7.21322 43.8832 9.40875L76.0814 104.083C74.8693 104.496 73.9916 104.696 73.6633 104.767C73.3732 104.829 73.3824 104.814 74.068 104.709L58.9619 5.85693ZM43.8831 9.40877C28.6188 14.6001 12.5531 25.5524 3.24455 45.0542L93.4912 88.1302C91.5576 92.1812 88.6318 95.9825 84.941 99.0252C81.4082 101.938 78.1068 103.394 76.0815 104.083L43.8831 9.40877ZM3.24476 45.0538C2.04434 47.5687 3.55907 44.3886 4.01674 43.513C5.03952 41.5561 7.43242 37.2466 11.6725 32.6894C16.2638 27.7546 22.5004 23.0804 30.43 20.0653C38.1242 17.1396 45.2757 16.5872 50.8191 16.8913L45.3417 116.741C50.9831 117.051 58.2132 116.486 65.9719 113.536C73.9658 110.496 80.2526 105.785 84.885 100.806C89.1661 96.205 91.591 91.8441 92.6418 89.8337C93.1274 88.9044 94.6662 85.6686 93.491 88.1307L3.24476 45.0538ZM86.0828 34.3228C85.1015 33.1752 84.2649 32.303 83.7963 31.8242C83.3238 31.3416 82.9414 30.9713 82.8634 30.8957C82.4204 30.466 83.2688 31.2778 84.0066 32.043C84.8758 32.9445 86.498 34.6894 88.2707 37.1022C90.0526 39.5277 92.3819 43.1564 94.3128 47.9387L1.58581 85.3781C3.5303 90.1941 5.87838 93.8542 7.68205 96.3093C9.47641 98.7516 11.1232 100.524 12.0175 101.452C12.7804 102.243 13.6543 103.079 13.2349 102.672C13.1687 102.608 12.7976 102.249 12.3356 101.777C11.8775 101.309 11.0506 100.447 10.0781 99.3096L86.0828 34.3228ZM94.3131 47.9396C89.069 34.9507 80.8591 26.4222 77.0288 22.5785L6.19411 93.165C6.73265 93.7054 6.18283 93.2115 5.31158 92.0567C4.35643 90.7907 2.864 88.544 1.58546 85.3773L94.3131 47.9396ZM77.0288 22.5785C74.4223 19.9629 70.6134 16.5433 70.3108 16.2627L2.31422 89.5871C5.55536 92.5927 5.3872 92.3552 6.19413 93.165L77.0288 22.5785ZM70.3109 16.2628C68.0357 14.1529 66.7601 12.9654 65.63 11.8265L-5.35364 82.2631C-2.47729 85.1618 0.421553 87.8319 2.31405 89.5869L70.3109 16.2628ZM65.6299 11.8264C65.6345 11.831 67.7547 13.9179 69.651 17.9059L-20.659 60.849C-15.9937 70.6601 -9.88306 77.6986 -5.35354 82.2632L65.6299 11.8264ZM69.651 17.9059C72.4111 23.7103 73.7331 30.6045 72.952 37.6512L-26.4392 26.6338C-27.7809 38.7378 -25.5898 50.4794 -20.659 60.849L69.651 17.9059ZM72.952 37.6513C72.321 43.3438 70.4441 48.5328 67.8965 52.8588C65.4833 56.9567 62.8768 59.5994 61.3271 60.9866L-5.37127 -13.5206C-13.8355 -5.94344 -24.2862 7.21079 -26.4392 26.6338L72.952 37.6513ZM61.327 60.9867C57.1644 64.7131 53.5345 65.9528 54.3167 65.6464L17.8475 -27.4664C12.782 -25.4824 3.53416 -21.4926 -5.37117 -13.5207L61.327 60.9867ZM54.3167 65.6464C56.7374 64.6983 58.0091 64.2836 62.1114 62.7544L27.1843 -30.9477C25.5773 -30.3487 21.0992 -28.74 17.8475 -27.4664L54.3167 65.6464ZM62.1115 62.7544C62.3921 62.6498 64.8629 61.757 67.5232 60.5229C70.4404 59.1698 74.647 56.9509 79.1161 53.4317L17.2499 -25.134C20.6618 -27.8207 23.7199 -29.393 25.4433 -30.1924C26.9099 -30.8727 28.1418 -31.3046 27.1843 -30.9477L62.1115 62.7544ZM79.116 53.4318C86.3678 47.7214 95.537 37.3441 98.4409 21.6041C101.394 5.59471 96.3616 -7.76157 90.9832 -16.2032L6.64629 37.5302C2.09874 30.3926 -2.63634 18.2959 0.100419 3.46151C2.78747 -11.1034 11.2254 -20.39 17.25 -25.1341L79.116 53.4318ZM90.9834 -16.203C87.1112 -22.2805 82.7183 -26.5432 79.3325 -29.3373L15.6824 47.7902C13.3088 45.8314 9.81724 42.5072 6.64615 37.53L90.9834 -16.203ZM79.3325 -29.3373C74.8257 -33.0566 70.3154 -35.8505 66.2476 -37.9723L20.0008 50.6914C19.0371 50.1887 17.4786 49.2726 15.6824 47.7902L79.3325 -29.3373ZM66.2475 -37.9723C57.6199 -42.4724 47.8977 -45.441 37.3993 -46.2067L30.1246 53.5283C26.2334 53.2445 22.7595 52.1303 20.0008 50.6914L66.2475 -37.9723ZM37.3992 -46.2067C29.5086 -46.7822 21.9634 -46.1037 14.9456 -44.5579L36.4568 53.1011C34.7548 53.476 32.5922 53.7083 30.1247 53.5283L37.3992 -46.2067ZM14.9456 -44.5579C11.6228 -43.826 6.32834 -42.4937 0.423863 -39.8738L40.9823 51.532C39.5859 52.1516 38.4344 52.5418 37.6728 52.7728C36.9278 52.9987 36.4605 53.1003 36.4568 53.1011L14.9456 -44.5579ZM0.423715 -39.8737C1.56818 -40.3816 -0.337692 -39.5525 -1.61595 -38.9221C-3.3387 -38.0724 -6.8504 -36.237 -10.7508 -33.144C-14.8889 -29.8626 -19.3974 -25.2265 -23.0606 -18.9205C-26.7304 -12.6032 -28.6669 -6.13108 -29.4608 -0.208895L69.6526 13.0775C68.8845 18.8076 67.0024 25.1232 63.4084 31.3101C59.821 37.4856 55.4096 42.0172 51.3826 45.2106C47.5932 48.2155 44.2065 49.9793 42.6153 50.7641C41.4685 51.3296 39.7007 52.1006 40.9824 51.5319L0.423715 -39.8737ZM-29.4608 -0.208744C-29.4996 0.0807024 -29.55 0.425502 -29.662 1.18077C-29.7567 1.81938 -29.9122 2.8635 -30.0602 3.97061L69.0586 17.2168C69.0962 16.9357 69.1459 16.5942 69.2567 15.8472C69.3501 15.2169 69.5053 14.1761 69.6526 13.0774L-29.4608 -0.208744ZM-30.0602 3.97034C-30.3723 6.3059 -30.8951 10.3906 -31.1412 12.2506L67.9946 25.3689C68.4731 21.7528 68.639 20.3566 69.0586 17.2171L-30.0602 3.97034ZM-31.1412 12.2505C-31.56 15.4149 -31.9463 18.249 -32.3958 21.617L66.7256 34.8442C67.1143 31.9313 67.582 28.4865 67.9946 25.3689L-31.1412 12.2505ZM-32.3958 21.617C-32.7946 24.6053 -33.0862 26.8581 -33.4541 29.5895L65.651 42.9384C66.0042 40.3156 66.4097 37.211 66.7256 34.8443L-32.3958 21.617ZM-33.4541 29.5896C-33.7872 32.063 -34.3265 35.9329 -34.7152 38.8635L64.4166 52.012C64.8395 48.8241 65.1602 46.5819 65.651 42.9383L-33.4541 29.5896ZM-34.7152 38.8635C-35.2419 42.8349 -35.7652 46.8436 -36.2758 50.8771L62.9324 63.4357C63.4112 59.6536 63.9075 55.8503 64.4166 52.012L-34.7152 38.8635ZM-36.2759 50.8772C-36.2343 50.5487 -36.1984 50.3174 -36.2432 50.6208C-36.2648 50.7669 -36.3713 51.4775 -36.4714 52.2489C-36.6772 53.8342 -37.052 57.0554 -36.9874 61.0531L62.9996 59.4385C63.047 62.3782 62.769 64.5636 62.6964 65.1232C62.6628 65.3816 62.632 65.5819 62.6856 65.2186C62.716 65.0127 62.8264 64.273 62.9324 63.4356L-36.2759 50.8772ZM8.26223 110.02C17.358 110.887 24.6515 109.145 28.9439 107.763C30.8158 107.16 32.2978 106.558 32.4362 106.503C33.0367 106.263 31.848 106.75 30.6203 107.178L-2.30007 12.7525C-3.70485 13.2422 -5.06887 13.8011 -4.64614 13.6323C-4.62255 13.6229 -4.27581 13.4838 -3.8191 13.3123C-3.33986 13.1323 -2.60719 12.8661 -1.69869 12.5736C2.2201 11.3121 9.11369 9.64824 17.7499 10.4713L8.26223 110.02ZM30.6206 107.178C29.1941 107.676 27.8608 107.901 26.7702 107.962L21.2033 8.11708C13.4015 8.55207 5.49454 10.0349 -2.30039 12.7526L30.6206 107.178ZM26.7701 107.962C24.0417 108.114 21.4459 107.711 19.2583 106.984L50.7991 12.0883C41.4429 8.97856 31.463 7.54506 21.2033 8.11708L26.7701 107.962ZM19.2582 106.984C16.2985 106 9.20194 102.859 3.59442 94.9527L85.162 37.1017C74.8881 22.6159 61.257 15.5643 50.7992 12.0884L19.2582 106.984ZM3.59447 94.9528C0.345551 90.3719 -3.3622 82.5384 -3.16893 72.4561L96.8127 74.3727C97.1114 58.7882 91.5477 46.1053 85.1619 37.1017L3.59447 94.9528ZM-3.16893 72.456C-3.18238 73.1577 -3.18299 73.7612 -3.18104 74.2003C-3.17919 74.6175 -3.17421 75.0023 -3.17231 75.1571C-3.16961 75.3775 -3.16997 75.3687 -3.17016 75.3266C-3.17044 75.2629 -3.1711 75.0348 -3.16481 74.7083L96.8166 76.6365C96.8302 75.9338 96.8308 75.3294 96.8289 74.8893C96.8271 74.4709 96.8221 74.0857 96.8202 73.9297C96.8174 73.7081 96.8178 73.7165 96.818 73.7573C96.8183 73.8201 96.8189 74.0473 96.8127 74.3728L-3.16893 72.456ZM-3.16481 74.7082C-3.21782 77.4567 -3.70521 93.602 8.69085 108.315C23.1577 125.486 42.2108 126.448 49.1449 126.198L45.5417 26.2626C52.0669 26.0274 70.8576 26.8997 85.1662 43.8827C97.4039 58.4078 96.8623 74.2668 96.8166 76.6366L-3.16481 74.7082ZM49.1456 126.198C48.0615 126.237 47.2989 126.213 47.1387 126.208L50.3549 26.2598C49.2597 26.2245 47.5596 26.1898 45.541 26.2627L49.1456 126.198ZM47.1384 126.208C52.8917 126.393 70.2064 125.945 84.7201 111.289C98.9824 96.8881 99.4245 79.9103 99.3122 74.5966L-0.665483 76.709C-0.768872 71.8157 -0.408047 55.1351 13.6673 40.9225C27.9941 26.4562 45.016 26.088 50.3552 26.2598L47.1384 126.208ZM99.3122 74.5955C99.3181 74.8754 99.315 75.0106 99.3166 74.6802C99.317 74.6042 99.3174 74.5295 99.3181 74.4154C99.3187 74.3118 99.3194 74.178 99.32 74.0363C99.3212 73.7544 99.3222 73.3695 99.3198 72.9352L-0.67866 73.4882C-0.678812 73.4607 -0.678515 73.4827 -0.679051 73.6077C-0.679315 73.6694 -0.679696 73.7392 -0.680271 73.839C-0.680786 73.9284 -0.68155 74.0571 -0.682182 74.1846C-0.684577 74.6679 -0.688582 75.6169 -0.66546 76.7101L99.3122 74.5955ZM99.3198 72.9349C99.3728 82.5042 95.9065 90.1739 92.4262 95.0374L11.1029 36.8436C4.5237 46.0377 -0.761544 58.5129 -0.678658 73.4884L99.3198 72.9349ZM92.4262 95.0374C87.2814 102.227 80.7628 105.575 76.9131 106.898L44.4162 12.3251C33.424 16.1023 20.7178 23.4072 11.1029 36.8435L92.4262 95.0374ZM76.9131 106.898C73.7129 107.997 71.012 108.092 69.5102 107.987L76.4291 8.22709C66.5046 7.53878 55.5823 8.48825 44.4162 12.3251L76.9131 106.898ZM69.5101 107.987C67.4785 107.847 66.3302 107.434 66.4988 107.492L98.6816 12.8118C92.5978 10.7438 85.0899 8.82777 76.4292 8.22709L69.5101 107.987ZM66.4988 107.492C65.2069 107.052 63.3707 106.325 64.6585 106.825C65.0938 106.994 67.3778 107.894 70.3775 108.672C77.4665 110.51 88.9862 111.792 101.741 106.732L64.8614 13.7807C77.346 8.82722 88.6192 10.0948 95.4748 11.8723C98.3579 12.6198 100.528 13.4785 100.852 13.6043C102.028 14.061 100.083 13.288 98.6815 12.8117L66.4988 107.492ZM133.299 59.8083C133.265 56.0288 132.838 53.0275 132.654 51.7974C132.604 51.4603 132.558 51.177 132.53 51.0017C132.516 50.9131 132.503 50.8339 132.495 50.7857C132.486 50.7253 132.483 50.7108 132.48 50.6909C132.463 50.5873 132.529 50.981 132.602 51.527L33.4826 64.7714C33.6023 65.667 33.7227 66.4091 33.7623 66.654C33.8329 67.0906 33.786 66.8028 33.7547 66.594C33.6753 66.0631 33.3307 63.7656 33.3033 60.704L133.299 59.8083ZM132.602 51.5273C131.598 44.0155 128.518 33.9072 120.477 24.6928C112.851 15.9524 104.215 12.0289 99.5216 10.3053L65.0492 104.176C60.7963 102.614 52.5057 98.8931 45.1302 90.4408C37.3411 81.5144 34.419 71.7796 33.4826 64.7711L132.602 51.5273ZM99.5228 10.3057C98.4296 9.90422 97.8484 9.68458 97.415 9.51144L60.3141 102.374C62.1455 103.106 63.8517 103.736 65.048 104.175L99.5228 10.3057ZM97.4154 9.51161C98.2012 9.82554 98.78 10.1004 99.1096 10.2646C99.4314 10.4249 99.5726 10.5084 99.4516 10.44C99.3098 10.3598 99.0603 10.215 98.4918 9.87647C98.3553 9.79522 98.2153 9.71163 98.0522 9.61432C97.8959 9.521 97.7157 9.41349 97.5326 9.3044C97.1661 9.08613 96.7255 8.82455 96.2501 8.54612L45.715 94.8375C46.1482 95.0912 46.4657 95.2831 47.3255 95.7951C48.0406 96.221 49.0776 96.8357 50.2356 97.4904C52.5348 98.7904 56.022 100.66 60.3137 102.374L97.4154 9.51161ZM96.2502 8.5462C90.0376 4.90783 85.6149 2.40928 80.8444 -0.52579L28.4425 84.6449C34.4428 88.3366 41.0163 92.0858 45.7149 94.8374L96.2502 8.5462ZM80.8443 -0.525851C80.4119 -0.791877 79.9724 -1.06095 79.6181 -1.27805C79.2413 -1.50896 78.9257 -1.70265 78.6283 -1.88646C78.0297 -2.25636 77.6454 -2.49967 77.3662 -2.68168C76.7882 -3.05846 77.0179 -2.94402 77.6069 -2.45566L13.7809 74.5264C19.9287 79.6236 26.6876 83.5651 28.4426 84.6449L80.8443 -0.525851ZM77.6068 -2.45572C77.6132 -2.45047 77.6823 -2.3931 77.7943 -2.29676C77.9072 -2.19965 78.079 -2.04972 78.294 -1.85457C78.7167 -1.47092 79.3744 -0.851158 80.1572 -0.0192448C81.7412 1.66398 83.9744 4.3583 86.0269 8.10796L-1.69089 56.1245C3.97301 66.4715 11.5484 72.6755 13.7809 74.5264L77.6068 -2.45572ZM86.0269 8.10792C88.6042 12.8162 91.1924 19.8106 91.2495 28.5356C91.3081 37.4963 88.6717 45.284 85.1481 51.2024L-0.776298 0.0458833C-12.0568 18.9931 -10.4498 40.1235 -1.69087 56.1245L86.0269 8.10792ZM85.1482 51.2023C80.5891 58.86 74.9574 62.7762 74.6674 62.9886L15.5849 -17.6914C13.0268 -15.8181 5.24532 -10.0683 -0.776395 0.0460455L85.1482 51.2023ZM74.6676 62.9885C73.8223 63.6075 73.133 64.0514 72.7045 64.3163C72.4873 64.4507 72.3202 64.5494 72.2199 64.6078C72.1207 64.6656 72.0708 64.6931 72.0924 64.6811C72.1169 64.6674 72.1832 64.6307 72.3301 64.5507C72.4025 64.5112 72.4837 64.4671 72.5867 64.4112C72.6698 64.3662 72.8215 64.2839 72.9351 64.2223C73.1882 64.0849 73.5309 63.8986 73.9048 63.6924C74.2839 63.4834 74.7356 63.2317 75.2323 62.948L25.6345 -23.8855C25.6988 -23.9222 25.661 -23.8992 25.2368 -23.6689C24.9474 -23.5119 24.1494 -23.0814 23.3766 -22.6503C21.784 -21.7619 18.8474 -20.0805 15.5847 -17.6912L74.6676 62.9885ZM75.2324 62.9479C75.1336 63.0043 74.9932 63.0806 75.7092 62.6895C76.1971 62.423 77.3257 61.8069 78.6019 61.0476C81.1707 59.5193 85.7156 56.624 90.408 52.0316L20.4638 -19.4372C23.7056 -22.6099 26.6113 -24.3806 27.4726 -24.8931C27.8951 -25.1444 28.1529 -25.2797 27.7678 -25.0694C27.6108 -24.9836 26.5953 -24.4343 25.6344 -23.8855L75.2324 62.9479ZM90.408 52.0317C95.9809 46.5776 103.216 37.1604 105.769 23.4553C108.332 9.69887 104.957 -1.80458 101.548 -9.13057L10.8824 33.0557C8.2749 27.4516 5.16197 17.4776 7.46082 5.13905C9.75011 -7.14816 16.1944 -15.259 20.4638 -19.4372L90.408 52.0317ZM128.464 20.7748C128.387 20.3645 128.319 20.035 128.299 19.937C128.257 19.7293 128.298 19.9294 128.318 20.0324C128.353 20.2037 128.427 20.579 128.512 21.0647C128.599 21.5577 128.709 22.2362 128.817 23.0494L29.6758 36.1289C29.9018 37.8421 30.1685 39.1839 30.2568 39.626C30.2933 39.8088 30.3507 40.0885 30.3246 39.9606C30.3209 39.9423 30.2695 39.6925 30.207 39.362L128.464 20.7748ZM128.816 23.0472C128.485 20.5346 127.908 15.7688 127.313 11.7799L28.4051 26.5155C28.8455 29.4711 29.0889 31.6818 29.6761 36.131L128.816 23.0472ZM127.313 11.7797C127.114 10.4411 126.953 9.10942 126.652 6.70301C126.387 4.58266 126.011 1.61624 125.484 -1.54963L26.8426 14.8771C27.0056 15.8555 27.1681 17.0538 27.4238 19.1008C27.6438 20.8616 27.9856 23.6998 28.4052 26.5156L127.313 11.7797ZM125.484 -1.54857C124.499 -7.46549 122.015 -15.9251 115.686 -24.2045C109.134 -32.7741 100.936 -37.9238 93.6078 -40.7656L57.4501 52.4686C50.5016 49.7739 42.5868 44.8298 36.2412 36.5294C30.1174 28.519 27.7609 20.392 26.8425 14.876L125.484 -1.54857ZM93.6079 -40.7656C87.7196 -43.0492 80.1476 -45.3159 71.2685 -46.1221L62.225 53.4681C59.4016 53.2117 57.6679 52.5531 57.45 52.4686L93.6079 -40.7656ZM71.2685 -46.1221C59.3592 -47.2036 47.7063 -45.4342 36.9275 -41.2165L73.3668 51.9081C70.0607 53.2017 66.1626 53.8256 62.225 53.4681L71.2685 -46.1221ZM36.9274 -41.2164C36.934 -41.219 36.9284 -41.2168 36.9019 -41.2065C36.8722 -41.195 36.8398 -41.1825 36.777 -41.1582C36.6764 -41.1193 36.4622 -41.0366 36.2295 -40.9454C35.7656 -40.7636 34.939 -40.4361 33.9584 -40.0122C32.016 -39.1725 28.7958 -37.6735 25.1686 -35.3046L79.8504 48.4206C77.0431 50.254 74.6908 51.3234 73.6366 51.7791C73.1001 52.011 72.7228 52.158 72.71 52.163C72.7028 52.1658 72.7145 52.1612 72.8398 52.1127C72.9319 52.0771 73.1427 51.9958 73.3669 51.908L36.9274 -41.2164ZM5.2281 22.8205C7.37907 29.0742 10.8696 35.231 15.8626 40.6473C20.7402 45.9385 25.8655 49.238 29.7474 51.2533C33.3107 53.1032 36.341 54.1085 36.8196 54.2718C38.3994 54.8109 35.959 54.0085 34.1473 53.2642L72.1506 -39.2331C70.2225 -40.0253 67.6585 -40.8667 69.1146 -40.3698C69.4696 -40.2486 72.3764 -39.2887 75.8233 -37.4992C79.5889 -35.5443 84.6052 -32.3201 89.3885 -27.1313C94.287 -21.8174 97.6978 -15.79 99.7909 -9.70449L5.2281 22.8205ZM34.1475 53.2643C34.6591 53.4745 35.1291 53.6636 35.5005 53.8124C35.6855 53.8865 35.8689 53.9598 36.0184 54.0195C36.1771 54.0829 36.3067 54.1347 36.4298 54.1841C36.9532 54.394 37.0523 54.438 37.0073 54.4185L76.8511 -37.3011C75.558 -37.8628 74.3965 -38.3317 73.6566 -38.6285C72.7147 -39.0062 72.5228 -39.0802 72.1504 -39.2332L34.1475 53.2643ZM37.0074 54.4185C37.4903 54.6283 35.882 53.9724 33.7661 52.701C31.4272 51.2957 27.8698 48.8075 24.3327 44.8141L99.1908 -21.4902C89.881 -32.001 78.8257 -36.4433 76.851 -37.3011L37.0074 54.4185ZM24.3325 44.814C20.1906 40.1377 15.7081 32.9772 13.8816 23.4055C12.0272 13.6878 13.5757 4.95567 16.1701 -1.62994L109.211 35.0233C112.543 26.565 114.284 16.0571 112.109 4.66117C109.962 -6.58888 104.647 -15.3304 99.1909 -21.4901L24.3325 44.814ZM16.1701 -1.63007C18.5821 -7.75256 21.8329 -12.0713 24.1014 -14.6386C26.0648 -16.8607 27.845 -18.3354 27.2041 -17.7768L92.9062 57.6104C93.1192 57.4248 103.613 49.2327 109.211 35.0235L16.1701 -1.63007ZM27.2041 -17.7768C27.8052 -18.3007 28.2055 -18.6058 28.0291 -18.4682C27.9236 -18.3859 27.8541 -18.3325 27.5464 -18.0946C27.302 -17.9055 26.9047 -17.5979 26.4625 -17.2479C24.8407 -15.9648 20.9586 -12.8515 17.0297 -8.24452L93.1177 56.6447C91.8129 58.1747 90.6441 59.306 89.8478 60.0292C89.4478 60.3926 89.1196 60.6729 88.8985 60.8576C88.6802 61.0398 88.5355 61.1545 88.5124 61.1728C88.4994 61.1831 88.5345 61.1551 88.7231 61.0093C88.7679 60.9746 88.813 60.9397 88.8704 60.8954C88.9245 60.8536 88.9889 60.8039 89.0556 60.7523C89.1885 60.6494 89.3556 60.5199 89.5385 60.3773C89.9002 60.0951 90.3906 59.7092 90.945 59.2591C91.5037 58.8054 92.1715 58.2507 92.9062 57.6104L27.2041 -17.7768ZM17.0296 -8.24448C1.94764 9.44046 -1.57 36.5011 13.3689 58.3922L95.9685 2.02458C101.397 9.97996 104.46 20.0687 103.674 30.8001C102.901 41.3562 98.5937 50.2236 93.1178 56.6446L17.0296 -8.24448ZM13.3689 58.3921C18.3135 65.6379 24.0047 70.3913 28.2238 73.3422L85.5374 -8.60381C88.0479 -6.84796 92.2121 -3.48004 95.9686 2.02463L13.3689 58.3921ZM28.2237 73.3421C34.2125 77.5307 39.9009 80.2518 43.6295 81.9189L84.4472 -9.37139C83.8743 -9.62753 83.7822 -9.6865 83.9552 -9.59393C84.1476 -9.49097 84.7297 -9.16876 85.5375 -8.60374L28.2237 73.3421ZM43.6295 81.9189C49.9526 84.7461 56.2139 87.226 62.3158 89.4462L96.508 -4.52663C92.2229 -6.08577 88.219 -7.68496 84.4471 -9.37141L43.6295 81.9189ZM62.3154 89.4461C61.5627 89.1722 60.9658 88.9328 60.6025 88.7837C60.4165 88.7073 60.2679 88.6448 60.1747 88.6054C60.1272 88.5852 60.0892 88.569 60.0644 88.5584C60.0402 88.5481 60.0239 88.5411 60.0223 88.5404C59.78 88.4363 60.9155 88.934 62.1251 89.4003C64.7735 90.4213 71.2324 92.7261 79.8207 92.9043L81.8944 -7.07422C89.9507 -6.90712 95.9205 -4.74483 98.096 -3.90616C99.0692 -3.53099 99.9722 -3.1344 99.4981 -3.3381C99.4078 -3.37693 98.111 -3.94334 96.5084 -4.52648L62.3154 89.4461ZM124.141 67.9462C129.203 59.1935 130.679 50.6576 130.901 44.4227C131.081 39.3915 130.353 34.8103 130.511 36.0485L31.3137 48.6912C31.4938 50.1039 30.7919 45.7036 30.9649 40.8556C31.181 34.8038 32.6185 26.4532 37.5743 17.8839L124.141 67.9462ZM130.511 36.049C130.315 34.5086 129.993 32.0766 129.843 30.9085L30.6636 43.6945C30.9486 45.9058 31.0792 46.851 31.3136 48.6907L130.511 36.049ZM129.843 30.9084C129.545 28.5954 129.251 26.2876 128.952 23.8819L29.7199 36.2549C30.0384 38.809 30.3491 41.255 30.6636 43.6946L129.843 30.9084Z" fill="black" mask="url(#path-1-inside-1_645_557)"/>
</svg>
