<svg width="32" height="32" viewBox="0 0 32 32" fill="none" xmlns="http://www.w3.org/2000/svg">
<g clip-path="url(#clip0_639_9)">
<path d="M27.0903 5.8144C25.0154 4.86214 22.8258 4.18249 20.5763 3.7924C20.556 3.78897 20.535 3.79194 20.5164 3.80089C20.4978 3.80984 20.4824 3.82435 20.4723 3.8424C20.1903 4.3424 19.8783 4.9964 19.6603 5.5084C17.2356 5.14042 14.7691 5.14042 12.3443 5.5084C12.1012 4.93804 11.8261 4.38183 11.5203 3.8424C11.5101 3.82454 11.4947 3.81021 11.4761 3.80128C11.4575 3.79236 11.4367 3.78926 11.4163 3.7924C9.16634 4.1804 6.97634 4.8604 4.90234 5.8144C4.88459 5.82118 4.86975 5.8339 4.86034 5.8504C0.712338 12.0484 -0.425662 18.0944 0.132338 24.0644C0.134338 24.0924 0.152338 24.1204 0.174338 24.1384C2.58979 25.9276 5.29152 27.2937 8.16434 28.1784C8.18462 28.1848 8.20642 28.1846 8.22656 28.1777C8.2467 28.1709 8.26414 28.1578 8.27634 28.1404C8.89234 27.3004 9.44034 26.4144 9.91234 25.4824C9.92218 25.4632 9.92554 25.4413 9.92194 25.4201C9.91834 25.3988 9.90795 25.3793 9.89234 25.3644C9.882 25.3546 9.86974 25.3471 9.85634 25.3424C8.99466 25.0112 8.16013 24.6134 7.36034 24.1524C7.338 24.1397 7.32138 24.119 7.31394 24.0944C7.30649 24.0698 7.30878 24.0433 7.32034 24.0204C7.32714 24.0055 7.33743 23.9925 7.35034 23.9824C7.51834 23.8564 7.68634 23.7244 7.84634 23.5924C7.86047 23.581 7.87743 23.5737 7.8954 23.5713C7.91336 23.5688 7.93166 23.5713 7.94834 23.5784C13.1863 25.9704 18.8563 25.9704 24.0303 23.5784C24.0476 23.5709 24.0666 23.5683 24.0853 23.5707C24.1039 23.5732 24.1216 23.5807 24.1363 23.5924C24.2963 23.7244 24.4643 23.8564 24.6323 23.9824C24.646 23.9924 24.6569 24.0055 24.6642 24.0207C24.6714 24.0359 24.6748 24.0527 24.674 24.0696C24.6733 24.0864 24.6683 24.1028 24.6596 24.1172C24.6509 24.1317 24.6388 24.1438 24.6243 24.1524C23.8264 24.6176 22.9908 25.015 22.1263 25.3404C22.1125 25.3454 22.1 25.3534 22.0897 25.3637C22.0793 25.3741 22.0713 25.3866 22.0663 25.4004C22.0617 25.4138 22.0599 25.4279 22.0609 25.442C22.0619 25.4561 22.0658 25.4699 22.0723 25.4824C22.5523 26.4124 23.1023 27.3004 23.7063 28.1404C23.7185 28.1578 23.736 28.1709 23.7561 28.1777C23.7763 28.1846 23.7981 28.1848 23.8183 28.1784C26.696 27.2965 29.4021 25.9302 31.8203 24.1384C31.8324 24.13 31.8425 24.119 31.8498 24.1062C31.8571 24.0934 31.8613 24.0791 31.8623 24.0644C32.5303 17.1624 30.7443 11.1664 27.1303 5.85241C27.1267 5.84363 27.1213 5.83571 27.1144 5.82917C27.1075 5.82262 27.0993 5.81759 27.0903 5.8144ZM10.6943 20.4284C9.11634 20.4284 7.81834 18.9804 7.81834 17.2044C7.81834 15.4264 9.09234 13.9784 10.6943 13.9784C12.3083 13.9784 13.5943 15.4384 13.5703 17.2044C13.5703 18.9804 12.2963 20.4284 10.6943 20.4284ZM21.3263 20.4284C19.7503 20.4284 18.4503 18.9804 18.4503 17.2044C18.4503 15.4264 19.7243 13.9784 21.3263 13.9784C22.9403 13.9784 24.2283 15.4384 24.2023 17.2044C24.2023 18.9804 22.9403 20.4284 21.3263 20.4284Z" fill="black"/>
</g>
<defs>
<clipPath id="clip0_639_9">
<rect width="32" height="32" fill="white"/>
</clipPath>
</defs>
</svg>
